# xmcd
#
# Track frame offsets:
#	150
#	14714
#	34418
#	44743
#	61304
#	74991
#	87093
#	99526
#	112060
#	122741
#	134868
#	154434
#	167146
#	183391
#	198980
#	214897
#	231474
#	251069
#	267584
#	285603
#	295123
#	308475
#	319551
#
# Disc length: 4436 seconds
#
# Revision: 0
# Processed by: cddbd v1.4PL0 Copyright (c) Steve Scherf et al.
# Submitted via: EasyCDDAExtractor 4.6.0.1
#
DISCID=78115217
DTITLE=Ortodox Celts - The Best Of
DYEAR=1999
DGENRE=
TTITLE0=Green Roses
TTITLE1=Rocky Road To Dublin (Down The River)
TTITLE2=St. Patrick Was A Gentlemen
TTITLE3=Galija
TTITLE4=Irish Rover
TTITLE5=All For Me Grog
TTITLE6=Nancy Whickey
TTITLE7=Drinking Song
TTITLE8=Star Of The County Down
TTITLE9=The Weaking Of The Green
TTITLE10=Foggy Dew
TTITLE11=The Celts Strike Again
TTITLE12=Spanish Lady
TTITLE13=Loch Lomond
TTITLE14=Salonika
TTITLE15=Sindidun
TTITLE16=Marie's Wedding
TTITLE17=Stand Up To Your Devil
TTITLE18=Leads Me On
TTITLE19=Merry Sisters
TTITLE20=Bean Na Shi
TTITLE21=Wind That Shakes The Barley (Sailor On The Rock)
TTITLE22=Far Away
EXTD=
EXTT0=
EXTT1=
EXTT2=
EXTT3=
EXTT4=
EXTT5=
EXTT6=
EXTT7=
EXTT8=
EXTT9=
EXTT10=
EXTT11=
EXTT12=
EXTT13=
EXTT14=
EXTT15=
EXTT16=
EXTT17=
EXTT18=
EXTT19=
EXTT20=
EXTT21=
EXTT22=
PLAYORDER=
